<svg xmlns="http://www.w3.org/2000/svg" width="36.5" height="37.5" viewBox="0 0 36.5 37.5">
  <g>
    <path fill="rgb(0,0,0)" fill-rule="evenodd" d="M18.8333349 19.83330673c1.83972221-1.83971497 4.82695837-1.8397091 6.66667334.0000131l7.66669411 7.66672426c1.83971497 1.8397222 1.8397091 4.82695836-.0000131 6.66667333-1.83972221 1.83971497-4.82695837 1.8397091-6.66667334-.0000131l-7.66669411-7.66672426c-1.83971497-1.8397222-1.8397091-4.82695836.0000131-6.66667333z"/>
    <path fill="rgb(0,0,0)" fill-rule="evenodd" d="M28 14c0-7.72681046-6.27319336-14-14-14S0 6.27318954 0 14s6.27319336 14 14 14 14-6.27318954 14-14zm-7.5 0c0-3.58744812-2.91255188-6.5-6.5-6.5S7.5 10.41255188 7.5 14s2.91255188 6.5 6.5 6.5 6.5-2.91255188 6.5-6.5z"/>
  </g>
</svg>
