<svg xmlns="http://www.w3.org/2000/svg" width="36" height="36" viewBox="0 0 36 36">
  <g>
    <path fill="rgb(0,0,0)" fill-rule="evenodd" d="M5 20h6.00000462v13.0000177c0 1.65574634-1.34425597 3.0000023-3.00000231 3.0000023C6.34425596 36.00002 5 34.65576404 5 33.0000177V20z"/>
    <path fill="rgb(0,0,0)" fill-rule="evenodd" d="M8.0000023 0c1.65574635 0 3.00000232 1.34425596 3.00000232 3.0000023V8H5V3.0000023C5 1.34425597 6.34425596 0 8.0000023 0z"/>
    <path fill="rgb(0,0,0)" fill-rule="evenodd" d="M25.00001538 30H31.00002v3.0000177c0 1.65574634-1.34425596 3.0000023-3.0000023 3.0000023-1.65574635 0-3.00000232-1.34425596-3.00000232-3.0000023V30z"/>
    <path fill="rgb(0,0,0)" fill-rule="evenodd" d="M28.0000177 0C29.65576403 0 31.00002 1.34425596 31.00002 3.0000023V18h-6.00000462V3.0000023C25.00001538 1.34425597 26.34427135 0 28.0000177 0z"/>
    <path fill="rgb(0,0,0)" fill-rule="evenodd" d="M16 14c0-4.4153204-3.58468628-8-8-8s-8 3.5846796-8 8c0 4.41531944 3.58468628 8 8 8s8-3.58468056 8-8zm-3.55557251 0c0-2.4529562-1.9914856-4.44444466-4.44442749-4.44444466-2.45297241 0-4.444458 1.99148846-4.444458 4.44444466 0 2.45295525 1.99148559 4.44444275 4.444458 4.44444275 2.4529419 0 4.44442749-1.9914875 4.44442749-4.44444275z"/>
    <path fill="rgb(0,0,0)" fill-rule="evenodd" d="M36 24c0-4.41532135-3.58468628-8-8-8s-8 3.58467865-8 8c0 4.41531944 3.58468628 8 8 8s8-3.58468056 8-8zm-3.55557251 0c0-2.45295525-1.9914856-4.44444466-4.44442749-4.44444466-2.45297241 0-4.444458 1.99148941-4.444458 4.44444466 0 2.45295525 1.99148559 4.44444275 4.444458 4.44444275 2.4529419 0 4.44442749-1.9914875 4.44442749-4.44444275z"/>
  </g>
</svg>
