<svg xmlns="http://www.w3.org/2000/svg" width="36" height="34" viewBox="0 0 36 34">
  <g>
    <path fill="rgb(0,0,0)" fill-rule="evenodd" d="M33 6H3l1 25c0 1.65574646 1.3442688 3 3 3h22c1.65576172 0 3-1.34425354 3-3l1-25zM11.3333435 9c1.83972169 0 3.33334351 1.49361801 3.33334351 3.33333588v13.3333683c0 1.83971786-1.49362182 3.33333397-3.3333435 3.33333397C9.49362183 29.00003815 8 27.50642205 8 25.66670418v-13.3333683C8 10.493618 9.49362183 9 11.3333435 9zm16.66668702 3.33333588C28.00003052 10.493618 26.50640869 9 24.66668702 9c-1.83972169 0-3.33334351 1.49361801-3.33334351 3.33333588v13.3333683c0 1.83971786 1.49362182 3.33333397 3.3333435 3.33333397 1.83972168 0 3.3333435-1.4936161 3.3333435-3.33333397v-13.3333683z"/>
    <path fill="rgb(0,0,0)" fill-rule="evenodd" d="M36 3.00001011c-9.3e-7 1.65574507-1.34425661 2.99999924-3.00000168 2.99999831l-30-.00001684C1.34425324 5.99999065-9.3e-7 4.65573496 0 2.99998989 9.3e-7 1.34424482 1.34425661-.00000935 3.00000168-.00000842l30 .00001684C34.65574676.00000935 36.00000093 1.34426504 36 3.00001011z"/>
  </g>
</svg>
