<svg xmlns="http://www.w3.org/2000/svg" width="46.149" height="45.668" viewBox="0 0 46.149 45.668">
  <g transform="rotate(120.000043 23.07450593 22.83382389)">
    <path fill="rgb(0,0,0)" fill-rule="evenodd" d="M12.43661819 7.36252589c2.60175498 0 4.71404992 2.11229494 4.71404992 4.71404992v23.1755909c0 2.60175497-2.11229494 4.71404992-4.71404992 4.71404992s-4.71404992-2.11229495-4.71404992-4.71404993V12.07657581c0-2.60175498 2.11229494-4.71404992 4.71404992-4.71404992z"/>
    <path fill="rgb(0,0,0)" fill-rule="evenodd" d="M8.95669066 9.78392342c1.30087664-2.25318639 4.1863249-3.02634108 6.4395113-1.72546443l20.0706548 11.58778793c2.2531864 1.30087664 3.02634108 4.1863249 1.72546444 6.4395113-1.30087665 2.2531864-4.18632491 3.02634108-6.4395113 1.72546444L10.6821551 16.22343473c-2.2531864-1.30087665-3.02634109-4.18632491-1.72546444-6.4395113z"/>
  </g>
</svg>
