<svg xmlns="http://www.w3.org/2000/svg" width="36.467" height="32.95" viewBox="0 0 36.467 32.95">
  <g>
    <path fill="rgb(0,0,0)" fill-rule="evenodd" d="M16.08251606 2.35700817c2.25318859-1.30087284 5.13863555-.5277133 6.4395084 1.7254753l11.5877541 20.07067432c1.30087286 2.25318858.5277133 5.13863554-1.72547528 6.4395084-2.25318858 1.30087284-5.13863555.52771329-6.4395084-1.7254753L14.35704079 8.79651657c-1.30087285-2.25318859-.5277133-5.13863555 1.72547528-6.4395084z"/>
    <path fill="rgb(0,0,0)" fill-rule="evenodd" d="M20.37517484 2.35702649c2.25318566 1.3008779 3.02633873 4.1863266 1.72546082 6.43951227L10.52199662 28.85132119C9.2211187 31.10450686 6.33567 31.87765993 4.08248435 30.57678201c-2.25318567-1.3008779-3.02633874-4.1863266-1.72546083-6.43951227L13.93566257 4.08248731c1.30087791-2.25318567 4.1863266-3.02633873 6.43951227-1.72546082z"/>
  </g>
</svg>
