<svg xmlns="http://www.w3.org/2000/svg" width="35.496" height="35" viewBox="0 0 35.496 35">
  <g>
    <g>
      <path fill="rgb(0,0,0)" fill-rule="evenodd" d="M3.3333537 7.33331964c1.8397222-1.83971497 4.82695836-1.8397091 6.66667333.0000131L20.65919307 17.9925407c1.83971497 1.8397222 1.8397091 4.82695836-.0000131 6.66667334-1.8397222 1.83971497-4.82695837 1.8397091-6.66667334-.00001311L3.3333406 13.99999297c-1.83971497-1.8397222-1.8397091-4.82695836.0000131-6.66667333z"/>
      <path fill="rgb(0,0,0)" fill-rule="evenodd" d="M31.65919943 7.3333391c1.83971807 1.8397191 1.83971723 4.82695526-.00000187 6.66667333l-10.65919 10.659184c-1.8397191 1.83971808-4.82695525 1.83971724-6.66667333-.00000187-1.83971807-1.8397191-1.83971723-4.82695526.00000188-6.66667333l10.65918999-10.659184c1.8397191-1.83971807 4.82695526-1.83971724 6.66667333.00000187z"/>
    </g>
    <path fill="rgb(0,0,0)" fill-rule="evenodd" d="M17.49626683 0c2.60175498 0 4.71404992 2.11229494 4.71404992 4.71404992V16.8561797c0 2.60175498-2.11229494 4.71404992-4.71404992 4.71404992s-4.71404992-2.11229494-4.71404992-4.71404992V4.71404992C12.7822169 2.11229494 14.89451185 0 17.49626683 0z"/>
    <path fill="rgb(0,0,0)" fill-rule="evenodd" d="M35.49626683 30.00000983c-.00000155 2.75957512-2.24042768 4.99999874-5.0000028 4.9999972l-25-.00001405c-2.75957513-.00000155-4.99999875-2.24042769-4.9999972-5.0000028.00000155-2.75957513 2.24042769-4.99999875 5.00000281-4.9999972l25 .00001404c2.75957512.00000155 4.99999874 2.24042769 4.9999972 5.0000028z"/>
  </g>
</svg>
