<svg xmlns="http://www.w3.org/2000/svg" width="36.508" height="32.95" viewBox="0 0 36.508 32.95">
  <g>
    <path fill="rgb(0,0,0)" fill-rule="evenodd" d="M4.08251606 2.35700817c2.25318859-1.30087284 5.13863555-.5277133 6.4395084 1.7254753l11.5877541 20.07067432c1.30087286 2.25318858.5277133 5.13863554-1.72547528 6.4395084-2.25318858 1.30087284-5.13863555.52771329-6.4395084-1.7254753L2.35704079 8.79651657c-1.30087285-2.25318859-.5277133-5.13863555 1.72547528-6.4395084z"/>
    <path fill="rgb(0,0,0)" fill-rule="evenodd" d="M32.42578688 2.37289234c2.25318566 1.30087791 3.02633873 4.18632661 1.72546082 6.43951227L22.57260866 28.86718705c-1.30087792 2.25318566-4.18632661 3.02633873-6.43951228 1.72546082-2.25318566-1.30087791-3.02633873-4.1863266-1.72546082-6.43951227L25.98627461 4.09835316c1.30087791-2.25318566 4.1863266-3.02633873 6.43951227-1.72546082z"/>
  </g>
</svg>
