<svg xmlns="http://www.w3.org/2000/svg" width="38.805" height="39.677" viewBox="0 0 38.805 39.677">
  <g>
    <path fill="rgb(0,0,0)" fill-rule="evenodd" d="M4.33015377 11.1965552c2.389865-1.37978263 5.45034061-.55972391 6.83012325 1.8301411l9.99996433 17.32052866c1.37978264 2.389865.55972392 5.45034061-1.83014108 6.83012325-2.389865 1.37978264-5.45034061.55972392-6.83012325-1.83014108L2.50001269 18.02667846c-1.37978264-2.389865-.55972392-5.45034061 1.83014108-6.83012325z"/>
    <path fill="rgb(0,0,0)" fill-rule="evenodd" d="M34.47532387 2.50000187c2.3898619 1.37978801 3.20991375 4.44026546 1.83012574 6.83012736l-15.00000487 25.9807593c-1.379788 2.38986191-4.44026546 3.20991376-6.83012736 1.83012575-2.3898619-1.379788-3.20991375-4.44026546-1.83012574-6.83012736l15.00000487-25.9807593c1.379788-2.3898619 4.44026546-3.20991376 6.83012736-1.83012575z"/>
  </g>
</svg>
