<svg xmlns="http://www.w3.org/2000/svg" width="46.284" height="45.746" viewBox="0 0 46.284 45.746">
  <g transform="rotate(120.000043 23.14217936 22.87289516)">
    <path fill="rgb(0,0,0)" fill-rule="evenodd" d="M33.33671091 5.66235988c2.60175498 0 4.71404993 2.11229494 4.71404993 4.71404992v23.17559089c0 2.60175498-2.11229495 4.71404992-4.71404993 4.71404992-2.60175497 0-4.71404992-2.11229494-4.71404992-4.71404992v-23.1755909c0-2.60175497 2.11229495-4.71404991 4.71404992-4.71404991z"/>
    <path fill="rgb(0,0,0)" fill-rule="evenodd" d="M9.0243641 19.69910338c1.30087664-2.25318639 4.1863249-3.02634108 6.4395113-1.72546443l20.0706548 11.58778793c2.25318639 1.30087664 3.02634108 4.1863249 1.72546443 6.4395113-1.30087665 2.25318639-4.1863249 3.02634108-6.4395113 1.72546444l-20.0706548-11.58778794c-2.2531864-1.30087664-3.02634108-4.1863249-1.72546444-6.4395113z"/>
  </g>
</svg>
